OpenSim_Sub05_CSBaseline_LCS.mot
version=1
nRows=51
nColumns=11
inDegrees=no
endheader
time	Bot_Shank	2nd_Bot_Shank	2nd_Top_Shank	Top_Shank	Bot_Thigh	Med_Thigh	Top_Thigh	BNOx	BNOy	BNOZ
0	11702.44956481	12041.16149657	12470.14168846	12046.46455970	12472.40674291	12301.21204388	12066.52118002	238.98894329	-88.43462427	184.86633375
0.01000000	11704.05442909	12041.24242055	12470.97681062	12046.67839702	12472.35779731	12292.74581892	12067.16296571	238.74504676	-88.63713877	186.76135481
0.02000000	11705.27469944	12041.29471958	12471.74906499	12046.98754128	12472.14488031	12284.19540916	12067.42007095	238.49621454	-88.83266778	187.67835196
0.03000000	11705.96103138	12041.29294497	12472.38962862	12047.43350088	12471.72700524	12275.91679696	12067.12843289	238.24767935	-89.01339762	187.16694326
0.04000000	11705.96408043	12041.21164801	12472.82967856	12048.05778419	12471.06318546	12268.26596470	12066.12398870	238.00467390	-89.17151466	184.77674680
0.05000000	11705.13450210	12041.02537999	12473.00039187	12048.90189962	12470.11243432	12261.59889475	12064.24267553	237.77243091	-89.29920522	180.05738065
0.06000000	11703.36819604	12040.71338272	12472.84851444	12049.98236876	12468.85854234	12256.21554435	12061.38291448	237.55490331	-89.38968891	172.65504921
0.07000000	11700.80577738	12040.28026809	12472.40500063	12051.18056524	12467.41931424	12252.11284328	12057.78108849	237.34912208	-89.44177390	162.73837087
0.08000000	11697.67021921	12039.73918613	12471.72914481	12052.33237920	12465.95765665	12249.18573866	12053.78732014	237.14978863	-89.45614918	150.65178029
0.09000000	11694.18455669	12039.10329333	12470.88026269	12053.27366650	12464.63651022	12247.32910078	12049.75181770	236.95160262	-89.43350516	136.73984460
0.10000000	11690.57182496	12038.38574617	12469.91767001	12053.84028302	12463.61881557	12246.43779993	12046.02478947	236.74926371	-89.37453225	121.34713093
0.11000000	11687.05505918	12037.59970114	12468.90068246	12053.86808461	12463.06751333	12246.40670640	12042.95644371	236.53747153	-89.27992086	104.81820641
0.12000000	11683.85729450	12036.75831471	12467.88861579	12053.19292714	12463.14554413	12247.13069046	12040.89698873	236.31092576	-89.15036141	87.49763818
0.13000000	11681.20156608	12035.87474337	12466.94078570	12051.65066648	12464.01584860	12248.50462240	12040.19663279	236.06432605	-88.98654430	69.72999337
0.14000000	11679.31090907	12034.96214360	12466.11650792	12049.07715849	12465.84136737	12250.42337250	12041.20558418	235.79237204	-88.78915994	51.85983911
0.15000000	11678.40835863	12034.03367189	12465.47509816	12045.30825904	12468.78504107	12252.78181106	12044.27405119	235.48976341	-88.55889875	34.23174255
0.16000000	11678.71694990	12033.10248471	12465.07587214	12040.17982399	12473.00981034	12255.47480835	12049.75224210	235.15119979	-88.29645113	17.19027080
0.17000000	11680.45971805	12032.18173854	12464.97814559	12033.52770921	12478.67861579	12258.39723467	12057.99036519	234.77138086	-88.00250749	1.07999102
0.18000000	11683.84366778	12031.27746103	12465.17858354	12025.21489751	12485.96937556	12261.44966858	12069.14772814	234.34534805	-87.67702794	-13.78375563
0.19000000	11688.95732875	12030.34299323	12465.21082330	12015.30485679	12495.17070086	12264.57487654	12081.97276387	233.87066893	-87.31457513	-27.30162599
0.20000000	11695.83612978	12029.30806188	12464.40097181	12003.95091300	12506.62081585	12267.73453368	12094.58154704	233.34604326	-86.90729256	-39.47108787
0.21000000	11704.51524921	12028.10228235	12462.07415706	11991.30681590	12520.65817871	12270.89040437	12105.08716950	232.77017614	-86.44731234	-50.29006573
0.22000000	11715.02986537	12026.65527001	12457.55550706	11977.52631529	12537.62124765	12274.00425295	12111.60272308	232.14177269	-85.92676655	-59.75648403
0.23000000	11727.41515658	12024.89664023	12450.17014981	11962.76316094	12557.84848084	12277.03784378	12112.24129964	231.45953799	-85.33778729	-67.86826724
0.24000000	11741.70630120	12022.75600837	12439.24321333	11947.17110264	12581.67833649	12279.95294121	12105.11599102	230.72217717	-84.67250665	-74.62333981
0.25000000	11757.93847754	12020.16298980	12424.09982561	11930.90389017	12609.44927278	12282.71130958	12088.33988905	229.92839531	-83.92305674	-80.01962622
0.26000000	11776.14686395	12017.04719989	12404.06511467	11914.11527332	12641.49974789	12285.27471325	12060.02608560	229.07689753	-83.08156963	-84.05505092
0.27000000	11796.29432186	12013.35426263	12378.62072539	11896.98260094	12678.02473443	12287.59616941	12018.65243469	228.16670191	-82.14141088	-86.74234904
0.28000000	11817.59714075	12009.19506901	12348.86412258	11879.92684960	12717.73791490	12289.53839305	11966.46245495	227.20005764	-81.10867963	-88.24715532
0.29000000	11838.83117275	12004.77800864	12316.84601815	11863.51272318	12758.47909011	12290.91082566	11907.92120503	226.18112012	-79.99698717	-88.82530706
0.30000000	11858.76657739	12000.31273130	12284.62944457	11848.30678317	12798.07676610	12291.52222022	11847.52245666	225.11406935	-78.82004189	-88.73380743
0.31000000	11876.17351420	11996.00888677	12254.27743430	11834.87559111	12834.35944893	12291.18132968	11789.75998154	224.00308535	-77.59155215	-88.22965959
0.32000000	11889.82214271	11992.07612483	12227.85301981	11823.78570849	12865.15564463	12289.69690700	11739.12755140	222.85234813	-76.32522637	-87.56986669
0.33000000	11898.59665868	11988.70948436	12207.25312258	11815.54781386	12888.48084945	12286.90500752	11699.75548019	221.66624569	-75.03462643	-86.99703224
0.34000000	11902.55852382	11985.95316684	12192.65979802	11810.09567133	12904.28097465	12282.92354586	11672.02188378	220.45131306	-73.73180223	-86.60510338
0.35000000	11902.46372363	11983.76238782	12183.24342262	11807.02269646	12913.64077275	12278.03671847	11654.09128250	219.21535192	-72.42791157	-86.40032794
0.36000000	11899.07722021	11982.09121272	12178.16129704	11805.91790587	12917.65971562	12272.53087100	11644.09958629	217.96618032	-71.13410077	-86.38782025
0.37000000	11893.16397566	11980.89370695	12176.57072197	11806.37031616	12917.43727514	12266.69234906	11640.18270511	216.71161630	-69.86151612	-86.57269466
0.38000000	11885.48895206	11980.12393591	12177.62899809	11807.96894395	12914.07292316	12260.80749829	11640.47654890	215.45947792	-68.62130394	-86.96006550
0.39000000	11876.81711154	11979.73596503	12180.49342608	11810.30280586	12908.66613157	12255.16266432	11643.11702763	214.21758322	-67.42461052	-87.55504711
0.40000000	11867.91341618	11979.68385972	12184.32130662	11812.96091849	12902.31637224	12250.04419279	11646.24005123	212.99375026	-66.28258216	-88.36275382
0.41000000	11859.54282808	11979.92168539	12188.26994040	11815.53229846	12896.12311702	12245.73842931	11647.98152966	211.79579707	-65.20636516	-89.38829998
0.42000000	11852.39985693	11980.40780063	12191.58306715	11817.65536247	12891.07958472	12242.50565380	11646.70014084	210.63299506	-64.20718061	-90.62993938
0.43000000	11846.65832497	11981.13229331	12194.14326540	11819.33362466	12887.39371739	12240.41350409	11642.40095723	209.52535669	-63.29680223	-92.03522228
0.44000000	11842.25868082	11982.09947243	12196.11944308	11820.73423696	12884.92149379	12239.44327529	11635.82697020	208.49770864	-62.48725147	-93.52897344
0.45000000	11839.14027225	11983.31371409	12197.68185873	11822.02512316	12883.51723242	12239.57585524	11627.72465187	207.57490027	-61.79055090	-95.03591043
0.46000000	11837.24244706	11984.77939438	12199.00077088	11823.37420707	12883.03525182	12240.79213175	11618.84047436	206.78178095	-61.21872315	-96.48075081
0.47000000	11836.50455304	11986.50088941	12200.24643810	11824.94941248	12883.32987051	12243.07299267	11609.92090978	206.14320006	-60.78379080	-97.78821213
0.48000000	11836.86593796	11988.48257526	12201.58911892	11826.91866319	12884.25540702	12246.39932583	11601.71243025	205.68400698	-60.49777646	-98.88301198
0.49000000	11838.26594963	11990.72882803	12203.19907187	11829.44988299	12885.66617987	12250.75201904	11594.96150790	205.42905106	-60.37270273	-99.68986790
0.50000000	11840.64393583	11993.24402382	12205.24655552	11832.71099568	12887.41650760	12256.11196015	11590.41461483	205.40318170	-60.42059220	-100.13349747
